<svg xmlns="http://www.w3.org/2000/svg" viewBox="0 0 512 512" id="explaining-analytical-chart">
  <path fill="#2ca68f" d="M306.717 452.376s-26.04 13.68-27.24 16.8-1.2 8.64-1.2 8.64h124.44a3 3 0 0 0 3-3l-2.88-22.44h-41.4l-8.76 6.72v-6.72Z"></path>
  <path d="M407.878 452.876h-46.441a.5.5 0 0 1-.5-.485l-4.568-156.372c-2.252 9.556-8.12 34.154-9.597 37.404-1.222 2.741 4.757 64.575 10.249 116.694a2.497 2.497 0 0 1-2.487 2.759h-47.817a.5.5 0 0 1-.5-.47c-.06-1.041-6.116-104.219-5.76-117.763.358-13.605 20.373-68.873 21.225-71.22a.5.5 0 1 1 .94.342c-.208.573-20.811 57.461-21.165 70.904-.343 13.033 5.284 109.57 5.732 117.207h47.345a1.498 1.498 0 0 0 1.492-1.654c-2.8-26.581-11.811-113.59-10.164-117.213 1.759-3.87 10.322-40.576 10.408-40.946a.5.5 0 0 1 .987.099l4.665 159.714h45.956a1.49 1.49 0 0 0 1.104-.48 1.473 1.473 0 0 0 .392-1.127c-1.383-18.11-13.517-177.927-13.517-212.213a.5.5 0 0 1 1 0c0 34.25 12.13 194.03 13.514 212.137a2.495 2.495 0 0 1-2.493 2.683Z"></path>
  <path fill="#fd6f41" d="m339.3 259.332-33.377 8.296a4 4 0 0 1-4.258-1.61l-26.224-38.015a4 4 0 0 1 2.193-6.118l33.832-9.666a4 4 0 0 1 4.43 1.631l3.9 5.866a11.627 11.627 0 0 0-3.54 1.09c-3.78 2.07-23.04 13.23-20.88 16.65 2.09 3.3 8.54 1.49 8.98 1.36-.44.31-7.52 5.31-4.12 8.54 3.51 3.33 9-.9 9-.9s-3.15 6.39.54 6.39a18.914 18.914 0 0 0 7.28-1.79c-.14.28-2.84 5.57 1.81 5.57 4.77 0 17.73-8.91 17.73-8.91s1.01.73 2.58 1.7l2.51 3.85a4 4 0 0 1-2.386 6.066Z"></path>
  <path d="M318.867 257.126a3.052 3.052 0 0 1-2.814-1.245c-1.01-1.637.166-4.27.551-5.038a.504.504 0 0 1 .674-.229.495.495 0 0 1 .226.665c-.647 1.292-1.188 3.125-.6 4.076a2.147 2.147 0 0 0 1.963.771c4.56 0 17.318-8.733 17.446-8.822a.502.502 0 0 1 .577.007c.01.007 1.016.732 2.55 1.68 2.563 1.616 7.417 4.43 11.169 5.134 5.53 1.033 19.724-5.907 19.867-5.978a.5.5 0 1 1 .441.898c-.594.292-14.634 7.167-20.493 6.062-3.914-.734-8.894-3.616-11.514-5.268a51.754 51.754 0 0 1-2.318-1.514c-1.993 1.35-13.2 8.801-17.725 8.801ZM276.147 194.028a.5.5 0 0 1-.499-.475c-.17-3.416-11.602-8.332-15.906-10.182-.666-.287-1.23-.53-1.65-.719a38.854 38.854 0 0 1-11.868-9.063c-4.115-4.613-5.387-9.807-4.206-11.972a1.442 1.442 0 0 1 .957-.778c1.004-.22 2.226.68 4.085 2.043a44.347 44.347 0 0 0 4.998 3.299c4.233 2.324 7.34 1.68 9.781-2.027a5.405 5.405 0 0 0 .852-4.335c-.7-2.995-3.9-6.175-9.507-9.451-9.613-5.617-14.236-10.286-13.743-13.88a.897.897 0 0 1 .507-.69c2.921-1.482 24.804 9.009 30.108 11.888 7.214 3.917 17.662 18.038 18.104 18.637a.5.5 0 0 1-.806.593c-.106-.145-10.757-14.54-17.776-18.352-9.087-4.933-27.632-12.951-29.187-11.869-.257 2.097 1.801 6.093 13.298 12.81 5.853 3.42 9.21 6.813 9.976 10.086a6.367 6.367 0 0 1-.99 5.113c-2.748 4.174-6.378 4.943-11.099 2.354a45.231 45.231 0 0 1-5.108-3.37c-1.46-1.071-2.727-1.996-3.276-1.872-.045.01-.164.036-.297.28-.888 1.628.034 6.297 4.075 10.827a37.769 37.769 0 0 0 11.532 8.817c.417.188.975.428 1.635.712 8.47 3.642 16.333 7.502 16.51 11.05a.5.5 0 0 1-.474.525Z"></path>
  <path d="M288.595 247.923H123.396a8.51 8.51 0 0 1-8.5-8.5V42.184a8.51 8.51 0 0 1 8.5-8.5h206.778a8.51 8.51 0 0 1 8.5 8.5v57.54a.5.5 0 1 1-1 0v-57.54a7.508 7.508 0 0 0-7.5-7.5H123.396a7.508 7.508 0 0 0-7.5 7.5v197.239a7.508 7.508 0 0 0 7.5 7.5h165.199a.5.5 0 0 1 0 1Z"></path>
  <path fill="#f3bc3e" d="m398.037 229.42 1.92 8.64h-11.04l-12.64 10.75a4.147 4.147 0 0 1-6.06-.76l-19.7-27.75-21.36-.96 4.3-29.76s-16.84 16.38-22.78 18.72c-4.42 1.74-22.39-4.49-31.3-7.8a5.45 5.45 0 0 1-3.23-6.97l8.62-23.76a5.453 5.453 0 0 1 8.17-2.66c6.67 4.481 16.86 11.15 17.98 10.83 1.55-.45 24.63-19.31 28.82-21.75 8.54 32.56 21.32-11.48 21.32-11.48 21.64 12.84 45.38 57.59 47.78 65.75 2.4 8.16-10.8 18.96-10.8 18.96Z"></path>
  <path d="M321.924 99.883c.289 2.34.638 5.168 2.846 7.116 3.667 3.234 9.613 1.528 9.963 1.423 3.701-1.117 5.699-3.746 7.116-2.846.386.245.332.5 1.423 2.846a23.738 23.738 0 0 0 1.423 2.846c1.638 2.263 4.056 1.175 5.693 2.847 2.367 2.417-.564 6.858 1.423 8.54 1.653 1.397 5.334-.275 7.116-1.424 4.097-2.642 5.574-8.23 4.27-12.809-.337-1.181-.703-3.176-4.27-7.116-3.122-3.45-4.703-5.185-5.693-5.693-4.148-2.13-6.21.465-11.385-1.423-3.783-1.38-3.387-3.024-7.116-4.27-.353-.117-7.846-2.515-11.386 1.424-2.178 2.423-1.737 5.998-1.423 8.539Z"></path>
  <path d="M337.74 148.698a17.104 17.104 0 0 1-9.02-2.559c-16.615-10.289-5.346-39.884-5.23-40.182a.5.5 0 1 1 .931.362c-.112.29-11.084 29.118 4.825 38.97a16.481 16.481 0 0 0 19.615-1.963 12.605 12.605 0 0 0 3.198-4.49.5.5 0 1 1 .928.37 13.587 13.587 0 0 1-3.444 4.851 17.307 17.307 0 0 1-11.804 4.641Z"></path>
  <path d="M347.242 168.687h-.045c-3.173-.042-5.771-4.087-7.943-12.37a.485.485 0 0 1-.017-.126.31.31 0 0 1 .001-.234c.014-.045 1.35-4.58.02-7.71a.5.5 0 0 1 .92-.392c1.355 3.19.283 7.443.056 8.259 1.983 7.537 4.395 11.539 6.976 11.573h.034c5.34 0 11.256-16.106 13.233-22.773-4.142-3.08-4.954-10.423-4.987-10.741a.5.5 0 0 1 .44-.549c.178-.022 4.453-.645 5.573-7.711.3-1.906.039-3.193-.777-3.826-1.558-1.205-4.709.139-4.74.152a.5.5 0 0 1-.398-.917c.15-.066 3.724-1.593 5.748-.027 1.128.873 1.516 2.479 1.155 4.773-1.029 6.49-4.612 8.075-5.947 8.444.247 1.654 1.347 7.487 4.79 9.783a.5.5 0 0 1 .203.555c-.283.975-7 23.837-14.295 23.837Z"></path>
  <path d="M339.714 148.054c1.423 3.34 0 8.045 0 8.045s12.809-5.664 12.809-17.078a13.115 13.115 0 0 1-3.321 4.67 16.792 16.792 0 0 1-9.456 4.36M328.656 129.02a2.797 2.797 0 0 1-2.47-.996c-.442-.724.145-2.436 1.307-5.653.944-2.609 2.012-5.565 1.889-6.989a1.067 1.067 0 0 0-.475-.837c-1.221-.859-4.335-.294-5.432-.003a.5.5 0 0 1-.256-.967c.45-.119 4.442-1.127 6.263.151a2.082 2.082 0 0 1 .896 1.57c.143 1.642-.918 4.577-1.944 7.415-.66 1.825-1.563 4.324-1.386 4.807.385.628 2.017.539 2.746.396a.5.5 0 0 1 .195.98 7.264 7.264 0 0 1-1.333.127ZM339.713 116.48a.497.497 0 0 1-.322-.12 4.381 4.381 0 0 0-4.794-.836.5.5 0 0 1-.47-.882 5.357 5.357 0 0 1 5.91.956.5.5 0 0 1-.324.881ZM331.168 137.116c-.25 0-.412-.014-.438-.016a.5.5 0 0 1 .092-.996c.021.001 2.25.186 3.307-1.041a3.359 3.359 0 0 0 .389-3.082.5.5 0 1 1 .971-.237 4.272 4.272 0 0 1-.605 3.975 5.003 5.003 0 0 1-3.716 1.397ZM354.796 131.148a.5.5 0 0 1-.063-.996c.022-.003 2.239-.303 3.005-1.73a3.357 3.357 0 0 0-.286-3.093.5.5 0 0 1 .897-.441 4.272 4.272 0 0 1 .267 4.012c-1.013 1.88-3.646 2.23-3.757 2.245a.56.56 0 0 1-.063.003Z"></path>
  <ellipse cx="336.308" cy="122.64" rx="1.312" ry="2.266"></ellipse>
  <ellipse cx="324.66" cy="121.053" rx="1.312" ry="2.266"></ellipse>
  <path d="M350.517 220.796a.5.5 0 0 1-.293-.906l21.987-15.84c-1.296-2.833-9.064-19.85-10.402-23.418-1.536-4.094 1.888-7.583 2.034-7.73a.5.5 0 0 1 .708.707c-.032.031-3.113 3.186-1.806 6.671 1.417 3.78 10.455 23.53 10.546 23.728a.5.5 0 0 1-.162.614l-22.32 16.08a.501.501 0 0 1-.292.094ZM388.917 238.056l9.12-8.64 1.92 8.64h-11.04zM377.877 243.596a.499.499 0 0 1-.406-.208l-18.24-25.44a.5.5 0 1 1 .812-.583l18.24 25.44a.5.5 0 0 1-.406.791ZM283.077 198.956a.489.489 0 0 1-.153-.024.5.5 0 0 1-.323-.628l9.36-29.28a.5.5 0 0 1 .952.305l-9.36 29.28a.5.5 0 0 1-.476.347ZM333.457 189.581l3.38-17.645-16.925 29.901 13.545-12.256z"></path>
  <path d="m364.407 185.498-4.77 28.228 13.2-9.51-8.43-18.718zM249.764 165.887a.5.5 0 0 1-.48-.357c-1.767-5.942-1.718-10.42.147-13.31a6.044 6.044 0 0 1 3.938-2.78.5.5 0 0 1 .137.991 5.05 5.05 0 0 0-3.25 2.355c-1.66 2.599-1.665 6.907-.013 12.459a.5.5 0 0 1-.48.642ZM257.383 168.469a.5.5 0 0 1-.344-.863c.044-.045.676-.752-.115-2.577-.757-1.75-1.379-5.969-.268-7.375a1.252 1.252 0 0 1 1.249-.485 7.59 7.59 0 0 1 2.187.848 5.61 5.61 0 0 0 2.992.879.508.508 0 0 1 .513.487.5.5 0 0 1-.487.513 6.814 6.814 0 0 1-3.477-.99 6.74 6.74 0 0 0-1.903-.752.263.263 0 0 0-.29.12c-.718.91-.374 4.567.402 6.358 1.107 2.555-.072 3.662-.123 3.708a.499.499 0 0 1-.336.129ZM309.777 253.346a2.094 2.094 0 0 1-1.92-.936c-.74-1.19-.225-3.24.291-4.658-1.958 1.1-5.575 2.51-8.255-.033a3.18 3.18 0 0 1-1.067-2.627c.218-3 4.406-6.095 5.243-6.685a.5.5 0 0 1 .576.818c-.474.334-4.632 3.336-4.822 5.94a2.197 2.197 0 0 0 .758 1.829c3.154 2.992 8.298-.894 8.351-.934a.5.5 0 0 1 .754.617c-.721 1.464-1.624 4.171-.98 5.205.071.115.289.464 1.07.464a18.267 18.267 0 0 0 7.033-1.726v.001a.505.505 0 0 1 .607.076.494.494 0 0 1 .004.702l-.01.01a.503.503 0 0 1-.146.102 19.357 19.357 0 0 1-7.487 1.835Z"></path>
  <path d="M300.147 239.92c-1.97 0-4.096-.465-5.192-2.196a1.74 1.74 0 0 1-.174-1.414c1.287-4.97 21.036-15.833 21.236-15.942a11.991 11.991 0 0 1 3.696-1.145 47.26 47.26 0 0 1 9.476-.386.5.5 0 0 1 .467.532.508.508 0 0 1-.532.466 47.21 47.21 0 0 0-9.242.374 11.027 11.027 0 0 0-3.384 1.036c-6.381 3.493-19.847 11.833-20.748 15.316a.774.774 0 0 0 .05.628c1.853 2.928 7.917 1.289 8.387 1.156a.506.506 0 0 1 .69.461.5.5 0 0 1-.293.456.508.508 0 0 1-.085.033 17.017 17.017 0 0 1-4.352.625Z"></path>
  <path d="M304.377 239.306a.5.5 0 0 1-.27-.92l15.42-9.87a.5.5 0 1 1 .54.84l-15.42 9.871a.495.495 0 0 1-.27.08ZM309.237 246.956a.5.5 0 0 1-.304-.897l13.8-10.56a.5.5 0 0 1 .607.794l-13.8 10.56a.497.497 0 0 1-.303.103ZM317.067 251.546a.5.5 0 0 1-.308-.894l10.17-7.95a.5.5 0 1 1 .616.788l-10.17 7.95a.5.5 0 0 1-.308.106ZM398.739 444.956h-29.982a.5.5 0 0 1 0-1h29.982a4.492 4.492 0 0 0 4.458-5.102c-9.259-67.039-11.162-198.719-11.18-200.041a.5.5 0 0 1 .493-.507h.007a.5.5 0 0 1 .5.493c.018 1.322 1.92 132.94 11.17 199.918a5.492 5.492 0 0 1-5.448 6.24ZM357.207 291.861v-31.32l-6.24 57.212 6.24-25.892zM342.319 444.956h-26.182a.5.5 0 1 1 0-1h26.182a4.493 4.493 0 0 0 4.475-4.965c-2.35-22.197-10.048-95.22-10.457-102.989-.479-9.108 13.557-52.115 14.155-53.941a.5.5 0 1 1 .95.311c-.146.445-14.575 44.654-14.106 53.578.407 7.744 8.103 80.746 10.453 102.935a5.494 5.494 0 0 1-5.47 6.071ZM320.997 477.816s-.96-9.36 2.4-11.76 29.28-9.12 29.28-9.12v2.67s-18.448 7.17-20.128 8.85-1.472 9.36-1.472 9.36ZM363.956 461.636a.497.497 0 0 1-.307-.105 16.427 16.427 0 0 0-9.47-3.075.486.486 0 0 1-.516-.484.5.5 0 0 1 .483-.515 17.097 17.097 0 0 1 10.118 3.285.5.5 0 0 1-.308.894ZM367.712 459.027a.497.497 0 0 1-.307-.106 16.419 16.419 0 0 0-9.47-3.074.492.492 0 0 1-.516-.484.5.5 0 0 1 .483-.515 17.063 17.063 0 0 1 10.118 3.284.5.5 0 0 1-.308.895ZM306.172 461.636a.497.497 0 0 1-.307-.105 16.423 16.423 0 0 0-9.47-3.075.492.492 0 0 1-.516-.484.5.5 0 0 1 .483-.515 17.093 17.093 0 0 1 10.117 3.285.5.5 0 0 1-.307.894ZM311.069 459.027a.497.497 0 0 1-.307-.106 16.421 16.421 0 0 0-9.47-3.074.487.487 0 0 1-.516-.484.5.5 0 0 1 .483-.515 17.067 17.067 0 0 1 10.117 3.284.5.5 0 0 1-.307.895Z"></path>
  <path fill="#2a448f" d="M154.678 127.911a.924.924 0 0 0 .87.613h3.914a.927.927 0 0 0 .871-.613l.292-1.009h-6.241Zm0 0"></path>
  <path fill="#f3bc3e" d="M164.989 114.038a10.303 10.303 0 1 0-14.95.017 9.072 9.072 0 0 1 2.573 6.24v.22h2.185v-.774a1.387 1.387 0 0 1 1.387-1.387h2.643a1.387 1.387 0 0 1 1.387 1.387v.774h2.185v-.219a9.121 9.121 0 0 1 2.59-6.258Z"></path>
  <path fill="#2ca68f" d="M162.405 121.627v-1.112h-9.8v4.762l.09.511a1.62 1.62 0 0 0 1.535 1.114h6.55a1.62 1.62 0 0 0 1.535-1.114l.09-1.661v-2.5Z"></path>
  <path d="M157.505 87.885a8.337 8.337 0 0 1 .5 2.997 8.242 8.242 0 0 1-.5 2.998 8.242 8.242 0 0 1-.5-2.998 8.335 8.335 0 0 1 .5-2.998ZM169.725 99.724a8.262 8.262 0 0 1 2.1-2.177 8.166 8.166 0 0 1 2.696-1.374 8.175 8.175 0 0 1-2.1 2.177 8.268 8.268 0 0 1-2.696 1.374ZM143.295 99.724a8.267 8.267 0 0 1-2.695-1.374 8.171 8.171 0 0 1-2.101-2.177 8.168 8.168 0 0 1 2.695 1.374 8.264 8.264 0 0 1 2.101 2.177ZM143.295 111.317a8.263 8.263 0 0 1-2.66 1.441 8.173 8.173 0 0 1-2.985.496 8.168 8.168 0 0 1 2.66-1.441 8.267 8.267 0 0 1 2.985-.496ZM171.111 111.317a8.267 8.267 0 0 1 2.985.496 8.168 8.168 0 0 1 2.66 1.441 8.174 8.174 0 0 1-2.984-.496 8.264 8.264 0 0 1-2.66-1.441ZM190.44 134.597a44.445 44.445 0 0 0-3.948 4.317 46.35 46.35 0 0 0-3.407 4.724 37.47 37.47 0 0 0-4.741 10.526 29.47 29.47 0 0 0-1.026 5.673 31.78 31.78 0 0 0 .11 5.77 29.398 29.398 0 0 0 1.209 5.67 40.004 40.004 0 0 0 2.113 5.449 30.347 30.347 0 0 1-4.084-11.016 28.88 28.88 0 0 1 .714-11.808 35.997 35.997 0 0 1 5.066-10.686 39.244 39.244 0 0 1 7.994-8.62Z"></path>
  <path d="M173.027 172.755c.705.217 1.382.49 2.072.739q1.02.4 2.024.835 2.004.874 3.955 1.857l-.693.305a56.81 56.81 0 0 1 2.596-7.171 56.79 56.79 0 0 1-1.648 7.447.49.49 0 0 1-.604.34.502.502 0 0 1-.079-.03l-.01-.005q-1.966-.954-3.876-2.017-.955-.533-1.893-1.101c-.615-.398-1.243-.77-1.844-1.199ZM212.705 89.118a63.943 63.943 0 0 0 8.726-.27 68.94 68.94 0 0 0 8.603-1.323 55.493 55.493 0 0 0 16.184-6.073 44.107 44.107 0 0 0 7.089-4.945 46.015 46.015 0 0 0 5.973-6.255 43.915 43.915 0 0 0 4.662-7.314c.718-1.266 1.266-2.612 1.859-3.942.316-.658.532-1.354.788-2.035l.763-2.052a46.43 46.43 0 0 1-7.461 15.81 43.201 43.201 0 0 1-13.177 11.6 54.027 54.027 0 0 1-16.526 5.956 60.572 60.572 0 0 1-17.483.843Z"></path>
  <path d="M271.308 67.24c-.46-.99-.86-2.001-1.286-3.003q-.611-1.513-1.184-3.039-1.144-3.052-2.171-6.143l.705.274c-3.327 1.802-6.691 3.536-10.184 5.038 3.139-2.145 6.405-4.058 9.708-5.903a.491.491 0 0 1 .669.19.505.505 0 0 1 .035.076l.002.009q1.06 3.08 2.003 6.2.47 1.56.903 3.133c.268 1.056.564 2.102.8 3.169Z"></path>
  <rect width="8.28" height="18.18" x="212.847" y="112.083" fill="#fd6f41" rx="1"></rect>
  <rect width="8.28" height="28.18" x="227.427" y="102.083" fill="#fd6f41" rx="1"></rect>
  <rect width="8.28" height="38.18" x="242.007" y="92.083" fill="#fd6f41" rx="1"></rect>
  <rect width="8.28" height="48.18" x="256.587" y="82.083" fill="#fd6f41" rx="1"></rect>
  <rect width="8.28" height="58.18" x="271.167" y="72.083" fill="#fd6f41" rx="1"></rect>
  <rect width="8.28" height="68.18" x="285.747" y="62.083" fill="#fd6f41" rx="1"></rect>
  <path fill="#f3bc3e" d="M214.935 202.363h26.204a26.204 26.204 0 0 1-5.103 15.537Z"></path>
  <path fill="#2ca68f" d="m214.935 202.363 21.11 15.524a26.204 26.204 0 0 1-44.693-4.1Z"></path>
  <path fill="#fd6f41" d="m214.935 202.363-23.614 11.36a26.204 26.204 0 1 1 49.818-11.36ZM147.589 418.002h41.214v52.814a7 7 0 0 1-7 7h-27.214a7 7 0 0 1-7-7v-52.814Z"></path>
  <path fill="#2ca68f" d="M177.883 356.145s-20.572-60.307 57.489-78.624c0 0-7.257 9.44-5.566 27.194 0 0-9.088 3.734-13.527 12.118 0 0 10.99-5.143 13.527-2.184v5.707s-7.186.211-10.78 2.325c0 0 9.512.422 9.512 1.48s-11.695 29.519-50.655 31.984Z"></path>
  <path d="M226.917 287.384a121.066 121.066 0 0 0-12.285 11.199 157.584 157.584 0 0 0-10.918 12.527 159.267 159.267 0 0 0-17.671 28.046 147.6 147.6 0 0 0-11.193 31.128 149.928 149.928 0 0 0-3.858 32.794v.008a1 1 0 1 1-2-.016v-.015a151.681 151.681 0 0 1 4.4-33.127 148.846 148.846 0 0 1 11.757-31.219 160.006 160.006 0 0 1 18.174-27.911 157.96 157.96 0 0 1 11.131-12.39 121.171 121.171 0 0 1 12.463-11.024Z"></path>
  <path fill="#c1e5d9" d="M161.256 351.355s3.946-22.545-15.5-34.522-27.616-22.404-27.616-22.404 1.127 52.417 43.116 56.926ZM181.546 386.863s6.2-12.682 29.59-18.036 27.9-23.602 27.9-23.602 1.057 36.696-28.084 41.295a26.95 26.95 0 0 1-5.127.261c-5.517-.189-19.769-.595-24.279.082Z"></path>
  <path fill="#2ca68f" d="M161.585 392.217s-2.536-35.508-21.723-38.608v5.918l-6.787-8.172s-5.636-5.073-20.853-4.791c0 0 4.464 16.885 10.051 24.98 8.173 11.842 20.196 16.164 39.312 20.673Z"></path>
  <path d="M120.958 352.482q6.79 5.284 13.304 10.92c4.349 3.747 8.61 7.6 12.738 11.6a155.679 155.679 0 0 1 11.786 12.628 67.317 67.317 0 0 1 5.094 7.063 24.102 24.102 0 0 1 3.44 8.238 1 1 0 0 1-1.97.35l-.004-.026-.008-.053a22.431 22.431 0 0 0-2.963-7.617 65.697 65.697 0 0 0-4.765-7.023 154.398 154.398 0 0 0-11.317-12.852c-3.993-4.101-8.131-8.068-12.363-11.934q-6.349-5.798-12.972-11.294ZM170.402 403.019a20.363 20.363 0 0 1 1.063-4.72 23.641 23.641 0 0 1 8.277-11.355 27.614 27.614 0 0 1 8.386-4.166c2.957-.893 5.932-1.634 8.923-2.312 5.967-1.383 12-2.47 17.718-4.59a41.24 41.24 0 0 0 8.181-4.026 44.714 44.714 0 0 0 7.067-5.806 44.828 44.828 0 0 1-6.928 6.014 41.604 41.604 0 0 1-8.14 4.285c-5.718 2.297-11.759 3.555-17.661 5.094-5.867 1.593-11.984 2.933-16.634 6.698a21.715 21.715 0 0 0-5.685 6.695 21.342 21.342 0 0 0-1.722 4.05 18.726 18.726 0 0 0-.847 4.234l-.005.072a1 1 0 0 1-1.995-.14ZM128.003 311.056l17.994 19.011c1.495 1.59 3.01 3.157 4.489 4.767.712.834 1.465 1.636 2.145 2.498.66.876 1.353 1.73 1.987 2.626a60.953 60.953 0 0 1 6.375 11.505 97.801 97.801 0 0 1 6.702 25.387 176.896 176.896 0 0 1 1.5 26.238 1 1 0 1 1-2-.023v-.02a175.131 175.131 0 0 0-.988-26.002 96.566 96.566 0 0 0-6.136-25.193 60.074 60.074 0 0 0-6.069-11.464c-.608-.896-1.276-1.75-1.91-2.628-.656-.863-1.383-1.668-2.07-2.506-1.441-1.63-2.93-3.23-4.393-4.846ZM147.589 418.002h41.214v19.048a14.795 14.795 0 0 0-14.795-14.795h-11.625a14.795 14.795 0 0 0-14.795 14.795v-19.048Z"></path>
  <rect width="57.348" height="14.936" x="139.522" y="403.066" fill="#fd6f41" rx="3"></rect>
  <path fill="#fed44a" d="M75.69 274.319h56.137v6.404H75.69z"></path>
  <path fill="#674cfb" d="M376.513 307.854h56.137v6.404h-56.137z"></path>
  <path fill="#fd6f41" d="M140.178 58.881h56.137v6.404h-56.137z"></path>
  <path d="M266.37 282.113a4.592 4.592 0 1 1 4.593-4.592 4.597 4.597 0 0 1-4.592 4.592Zm0-8.184a3.592 3.592 0 1 0 3.593 3.592 3.596 3.596 0 0 0-3.592-3.592ZM388.274 146.475a4.593 4.593 0 1 1 4.592-4.593 4.598 4.598 0 0 1-4.592 4.593Zm0-8.185a3.593 3.593 0 1 0 3.592 3.592 3.597 3.597 0 0 0-3.592-3.592Z"></path>
  <path fill="#fd6f41" d="m87.883 192.355-7.32-2 5.32-6.32 2 8.32z"></path>
  <path fill="#fed44a" d="m274.827 383.892-7.32-2 5.32-6.32 2 8.32zM436.31 185.922l-7.32-2 5.32-6.32 2 8.32z"></path>
  <path fill="#674cfb" d="m413.538 78.412-7.32-2 5.32-6.32 2 8.32z"></path>
  <path fill="#2ca68f" d="m103.758 391.023-7.32-2 5.32-6.32 2 8.32z"></path>
</svg>
